<svg id="Capa_1" enable-background="new 0 0 512 512" height="512" viewBox="0 0 512 512" width="512" xmlns="http://www.w3.org/2000/svg"><g><path d="m512 256c0 29.53-5 57.9-14.21 84.29-59.341 44.394-97.043 60.297-204.213 64.727-3.56.15-7.14.22-10.74.22-18.33 0-63.047 104.833-80.277 101.173-115.73-24.58-202.56-127.36-202.56-250.41 0-141.38 114.62-256 256-256s256 114.62 256 256z" fill="#73cbfc"/><g><path d="m293.581 37.224v75.98h-230.138l-32.937-43.082 34.034-50.503z" fill="#f5f0f0"/><path d="m310.084 113.207v275.302c0 9.112-7.387 16.507-16.507 16.507h-215.141c-35.796 0-64.816-29.02-64.816-64.816v-271.175l64.816 44.182z" fill="#5e54ac"/><path d="m79.031 113.207v291.809h-.594c-35.796 0-64.816-29.02-64.816-64.816v-271.175l64.816 44.182z" fill="#524798"/><path d="m293.581 133.838h-214.319c-35.683 0-65.291-28.493-65.637-64.174-.35-36.031 28.859-65.454 64.811-65.454h215.145c9.117 0 16.507 7.391 16.507 16.507 0 9.117-7.391 16.507-16.507 16.507h-214.549c-17.365 0-31.976 13.673-32.387 31.033-.423 17.883 14.001 32.566 31.79 32.566h215.145c9.117 0 16.507 7.391 16.507 16.507.001 9.117-7.389 16.508-16.506 16.508z" fill="#524798"/><g fill="#d0cee7"><path d="m99.124 64.907h194.457v-18.664h-194.457c-5.154 0-9.332 4.178-9.332 9.332 0 5.154 4.178 9.332 9.332 9.332z"/><path d="m82.547 92.628h211.034v-18.664h-211.034c-5.154 0-9.332 4.178-9.332 9.332 0 5.154 4.178 9.332 9.332 9.332z"/></g></g><g><path d="m481.291 190.858v75.98h-230.138l-32.937-43.082 34.035-50.503z" fill="#f5f0f0"/><path d="m497.79 266.84v73.45c-34.84 99.97-129.94 171.71-241.79 171.71-18.33 0-36.21-1.93-53.44-5.59-.81-4.07-1.23-8.28-1.23-12.58v-271.17l64.82 44.18z" fill="#dd5790"/><path d="m266.74 266.84v244.94c-3.56.15-7.14.22-10.74.22-18.33 0-36.21-1.93-53.44-5.59-.81-4.07-1.23-8.28-1.23-12.58v-271.17l64.82 44.18z" fill="#c14098"/><path d="m481.291 287.472h-214.319c-35.683 0-65.291-28.493-65.637-64.174-.349-36.031 28.86-65.454 64.811-65.454h215.145c9.117 0 16.507 7.391 16.507 16.507 0 9.117-7.391 16.507-16.507 16.507h-214.549c-17.365 0-31.976 13.673-32.387 31.033-.423 17.883 14.001 32.566 31.79 32.566h215.145c9.117 0 16.507 7.391 16.507 16.507.001 9.117-7.389 16.508-16.506 16.508z" fill="#c14098"/><g fill="#d0cee7"><path d="m286.834 218.541h194.457v-18.664h-194.457c-5.154 0-9.332 4.178-9.332 9.332 0 5.154 4.178 9.332 9.332 9.332z"/><path d="m270.257 246.262h211.034v-18.664h-211.034c-5.154 0-9.332 4.178-9.332 9.332 0 5.154 4.178 9.332 9.332 9.332z"/></g></g></g></svg>