<svg id="Capa_1" enable-background="new 0 0 501 501" height="512" viewBox="0 0 501 501" width="512" xmlns="http://www.w3.org/2000/svg"><g><path d="m144.458 468.694c-79.447-40.695-133.753-123.506-133.457-218.971.424-136.606 111.316-245.798 247.913-244.206 112.332 1.309 206.49 78.217 233.972 182.221 2.552 9.656-4.817 19.096-14.805 19.096h-64.471c-138.408 0-250.61 112.202-250.61 250.61 0 9.52-10.069 15.59-18.542 11.25z" fill="#453d83"/><path d="m130 154.5c0 5.523-4.477 10-10 10s-10-4.477-10-10 4.477-10 10-10 10 4.477 10 10zm25-10c-5.523 0-10 4.477-10 10s4.477 10 10 10 10-4.477 10-10-4.477-10-10-10zm35 0c-5.523 0-10 4.477-10 10s4.477 10 10 10 10-4.477 10-10-4.477-10-10-10z" fill="#958fca"/><path d="m181.571 24.5v49.714c0 8.284-6.716 15-15 15h-23.143c-8.284 0-15-6.716-15-15v-49.714c0-8.284 6.716-15 15-15h23.143c8.285 0 15 6.716 15 15zm-15 215.286h-23.143c-8.284 0-15 6.716-15 15v49.714c0 8.284 6.716 15 15 15h23.143c8.284 0 15-6.716 15-15v-49.714c0-8.284-6.715-15-15-15zm-86.857-63.714v-23.143c0-8.284-6.716-15-15-15h-49.714c-8.284 0-15 6.716-15 15v23.143c0 8.284 6.716 15 15 15h49.714c8.285 0 15-6.716 15-15zm215.286-38.143h-49.714c-8.284 0-15 6.716-15 15v23.143c0 8.284 6.716 15 15 15h49.714c8.284 0 15-6.716 15-15v-23.143c0-8.285-6.716-15-15-15zm-220.206-91.213c-5.858-5.858-15.355-5.858-21.213 0l-16.365 16.365c-5.858 5.858-5.858 15.355 0 21.213l35.153 35.153c5.858 5.858 15.355 5.858 21.213 0l16.365-16.365c5.858-5.858 5.858-15.355 0-21.213zm162.836 162.837c-5.858-5.858-15.355-5.858-21.213 0l-16.365 16.364c-5.858 5.858-5.858 15.355 0 21.213l35.153 35.153c5.858 5.858 15.355 5.858 21.213 0l16.365-16.364c5.858-5.858 5.858-15.355 0-21.213zm-144.047 0c-5.858-5.858-15.355-5.858-21.213 0l-35.153 35.153c-5.858 5.858-5.858 15.355 0 21.213l16.365 16.364c5.858 5.858 15.355 5.858 21.213 0l35.153-35.153c5.858-5.858 5.858-15.355 0-21.213zm122.834-90.106c5.858 5.858 15.355 5.858 21.213 0l35.153-35.153c5.858-5.858 5.858-15.355 0-21.213l-16.365-16.365c-5.858-5.858-15.355-5.858-21.213 0l-35.152 35.154c-5.858 5.858-5.858 15.355 0 21.213z" fill="#3493f8"/><path d="m155 34.5c-71.797 0-130 58.203-130 130s58.203 130 130 130 130-58.203 130-130-58.203-130-130-130zm0 207.371c-42.731 0-77.371-34.64-77.371-77.371s34.64-77.371 77.371-77.371 77.371 34.64 77.371 77.371-34.64 77.371-77.371 77.371z" fill="#86befb"/><path d="m155 74.5c-49.706 0-90 40.294-90 90s40.294 90 90 90 90-40.294 90-90-40.294-90-90-90zm0 160c-38.66 0-70-31.34-70-70s31.34-70 70-70 70 31.34 70 70-31.34 70-70 70z" fill="#1380e2"/><path d="m240.865 191.546c-1.297 4.12-5.074 6.955-9.394 6.955h-.391c-6.688 0-11.334-6.515-9.319-12.892 2.272-7.193 3.414-14.887 3.217-22.876-.933-37.829-32.372-68.356-70.213-68.232-27.224.089-50.788 15.719-62.286 38.482-1.693 3.351-5.07 5.517-8.825 5.517h-.41c-7.319 0-12.041-7.711-8.763-14.255 14.873-29.691 45.686-50.013 81.217-49.742 47.78.364 87.343 38.608 89.228 86.352.425 10.727-1.03 21.058-4.061 30.691z" fill="#3493f8"/><path d="m174.039 481.454c-10.351-3.673-20.382-8.023-30.039-12.995v-201.626c0-11.046 8.954-20 20-20h19v228.321c0 4.635-4.593 7.85-8.961 6.3z" fill="#f5e8b4"/><path d="m193 246.833 292.084 3.5c8.828.106 15.89 7.522 15.39 16.336-.003.055-.006.11-.01.164-8.405 127.695-114.643 228.667-244.464 228.667-29.134 0-57.081-5.085-83-14.417v-214.25c0-11.045 8.954-20 20-20z" fill="#f9f1d2"/><path d="m244 340.14c0 5.523-4.477 10-10 10h-40c-5.523 0-10-4.477-10-10s4.477-10 10-10h40c5.523 0 10 4.477 10 10z" fill="#f76937"/><path d="m184 380.14c0-5.523 4.477-10 10-10h20c5.523 0 10 4.477 10 10s-4.477 10-10 10h-20c-5.523 0-10-4.478-10-10zm30 30h-20c-5.523 0-10 4.477-10 10s4.477 10 10 10h20c5.523 0 10-4.477 10-10s-4.477-10-10-10zm0 40h-20c-5.523 0-10 4.477-10 10s4.477 10 10 10h20c5.523 0 10-4.477 10-10s-4.477-10-10-10z" fill="#ff956a"/><path d="m284 310.14h-90c-5.523 0-10-4.477-10-10s4.477-10 10-10h90c5.523 0 10 4.477 10 10 0 5.522-4.477 10-10 10zm-40 70c0 5.523 4.477 10 10 10h90c5.523 0 10-4.477 10-10s-4.477-10-10-10h-90c-5.523 0-10 4.477-10 10zm10 30c-5.523 0-10 4.477-10 10s4.477 10 10 10h40c5.523 0 10-4.477 10-10s-4.477-10-10-10zm80 0c-5.523 0-10 4.477-10 10s4.477 10 10 10h88.598c6.788-6.298 13.218-12.976 19.257-20zm-11.667 40h-68.333c-5.523 0-10 4.477-10 10s4.477 10 10 10h68.333c5.523 0 10-4.477 10-10s-4.477-10-10-10z" fill="#ffc5ae"/><path d="m211.563 266.833h-67.563v-20c0-11.046 8.954-20 20-20h27.563c11.046 0 20 8.954 20 20z" fill="#ff956a"/><path d="m501 250.5c0 5.488-.181 10.935-.536 16.333h-327.464v-20c0-11.046 8.954-20 20-20h288.605c10.506 0 19.148 8.381 19.349 18.886.031 1.59.046 3.184.046 4.781z" fill="#ffad8c"/><path d="m263 246.833h-119v-40c0-11.046 8.954-20 20-20h79c11.046 0 20 8.954 20 20z" fill="#ea552d"/><path d="m500.973 246.833h-327.973v-40c0-11.046 8.954-20 20-20h299.646c5.146 19.174 8.023 39.275 8.327 60z" fill="#f76937"/><path d="m183 216.833c0 5.523-4.477 10-10 10s-10-4.477-10-10 4.477-10 10-10 10 4.478 10 10zm30-10c-5.523 0-10 4.477-10 10s4.477 10 10 10 10-4.477 10-10c0-5.522-4.477-10-10-10zm40 0c-5.523 0-10 4.477-10 10s4.477 10 10 10 10-4.477 10-10c0-5.522-4.477-10-10-10z" fill="#d1462a"/></g></svg>